<svg width="22" height="22" viewBox="0 0 22 22" fill="none" xmlns="http://www.w3.org/2000/svg">
<path d="M4.12274 0.425095C3.42805 0.424767 2.69708 0.525595 1.92796 0.750033C1.92568 0.750796 1.92342 0.751577 1.92116 0.752377C1.91334 0.754865 1.90558 0.757569 1.89791 0.760486C1.89176 0.762726 1.88567 0.765102 1.87963 0.767611C1.87219 0.770816 1.86485 0.774224 1.8576 0.77783C1.85153 0.780709 1.84553 0.783726 1.8396 0.786877C1.83224 0.790937 1.82501 0.795204 1.81789 0.799674C1.81248 0.802996 1.80713 0.806434 1.80186 0.809986C1.79492 0.814792 1.78813 0.819794 1.78147 0.824986C1.77632 0.828875 1.77126 0.832876 1.76628 0.836986C1.75993 0.842389 1.75372 0.847969 1.74767 0.85372C1.74294 0.85815 1.73829 0.862682 1.73375 0.867314C1.72779 0.873474 1.72201 0.879805 1.71641 0.886299C1.71246 0.890798 1.7086 0.895377 1.70483 0.900033C1.69927 0.907104 1.69392 0.914341 1.6888 0.921736C1.68534 0.92659 1.68198 0.931513 1.67872 0.936502C1.6741 0.943748 1.66969 0.951126 1.6655 0.958627C1.66237 0.964093 1.65935 0.969626 1.65646 0.97522C1.65259 0.982879 1.64895 0.990648 1.64553 0.998517C1.64298 1.0042 1.64054 1.00994 1.63822 1.01572C1.63521 1.02364 1.63243 1.03164 1.62988 1.03972C1.62784 1.04571 1.62594 1.05174 1.62416 1.05781C1.6211 1.06846 1.61844 1.07922 1.61619 1.09006L0.566565 6.33828C0.546474 6.43889 0.56174 6.54336 0.609783 6.63401C0.657827 6.72467 0.735699 6.79595 0.830237 6.83581L4.67507 8.45666L6.15725 16.0566L0.694722 17.2432C0.596205 17.2644 0.507795 17.3184 0.443937 17.3963C0.38008 17.4743 0.344552 17.5716 0.343159 17.6724L0.293378 21.2569C0.292399 21.3274 0.308195 21.3972 0.339463 21.4605C0.370731 21.5237 0.416577 21.5786 0.473225 21.6207C0.529872 21.6627 0.595699 21.6907 0.665284 21.7023C0.734868 21.7139 0.806218 21.7089 0.873456 21.6875L7.73914 19.4931L8.86991 19.2739C8.87821 19.274 8.88646 19.2746 8.89475 19.2746C9.36144 19.2746 9.80094 19.0523 10.1079 18.69C10.4146 18.3279 10.575 17.8561 10.5746 17.37V17.3688C10.5748 17.0606 10.5103 16.7577 10.385 16.4849L9.20028 10.3645L15.0959 12.8498C15.0984 12.8507 15.1008 12.8516 15.1032 12.8525C15.1116 12.8558 15.1201 12.8589 15.1288 12.8617C15.1342 12.8636 15.1397 12.8653 15.1452 12.8669C15.1536 12.8693 15.1621 12.8715 15.1706 12.8734C15.1771 12.8749 15.1836 12.8762 15.1901 12.8774C15.1976 12.8787 15.2052 12.8799 15.2128 12.8808C15.2203 12.8818 15.2278 12.8826 15.2353 12.8832C15.2421 12.8836 15.2488 12.8839 15.2555 12.8841C15.2639 12.8844 15.2724 12.8845 15.2808 12.8843C15.2865 12.8842 15.2922 12.8841 15.2978 12.8838L19.2075 12.6363C19.2868 12.6311 19.3634 12.6046 19.4291 12.5598C19.4948 12.515 19.5472 12.4534 19.5811 12.3814L21.9493 7.36794L21.9497 7.36728C21.9497 7.36725 21.9497 7.36722 21.9497 7.36719C21.95 7.36646 21.9503 7.36572 21.9506 7.36499C21.9781 7.30814 21.9932 7.24609 21.9949 7.18296C21.9966 7.11982 21.9848 7.05706 21.9604 6.99882C21.936 6.94058 21.8994 6.8882 21.8532 6.84517C21.807 6.80213 21.7522 6.76941 21.6923 6.74919C21.3395 6.55533 20.9616 6.41103 20.5694 6.32038L6.1378 0.719752C6.12546 0.715008 6.11292 0.710817 6.10021 0.707189C5.47597 0.527048 4.81747 0.42547 4.12274 0.425095ZM2.88772 1.06836C2.947 1.06799 3.00576 1.07947 3.06055 1.10211L16.6895 6.56446C16.7869 6.60344 16.8674 6.67554 16.9169 6.76806C16.9663 6.86058 16.9816 6.96758 16.9599 7.07024C16.9469 7.09206 16.9359 7.11496 16.9268 7.13867L16.8876 7.23571C16.8298 7.31742 16.7461 7.37728 16.6501 7.40565C16.5541 7.43402 16.4513 7.42924 16.3584 7.39208L2.72952 1.92828C2.63324 1.89056 2.55309 1.82051 2.50281 1.73015C2.45254 1.63979 2.43528 1.53475 2.454 1.43306C2.47271 1.33136 2.52624 1.23935 2.60538 1.1728C2.68453 1.10626 2.78432 1.06933 2.88772 1.06836ZM19.6365 7.08556C19.8428 7.08735 20.0467 7.10938 20.2491 7.15138L20.94 7.4195L19.8305 9.7686C19.8733 9.57838 19.8951 9.38975 19.8931 9.21289C19.8884 8.80358 19.7553 8.46524 19.5253 8.29588C19.2954 8.12652 18.9775 8.13275 18.664 8.3076C18.5867 8.35072 18.5091 8.4043 18.434 8.4658C18.4628 8.42727 18.4898 8.38517 18.5131 8.33985C18.5795 8.21061 18.6185 8.06085 18.6172 7.92828C18.6157 7.79539 18.5729 7.68252 18.497 7.625C18.4602 7.59655 18.4147 7.58157 18.3681 7.58253C18.3208 7.58328 18.2696 7.5981 18.2202 7.62646C18.1214 7.68327 18.029 7.79146 17.9624 7.92092C17.896 8.05049 17.8569 8.19974 17.8585 8.33258C17.8599 8.46538 17.9028 8.5783 17.9786 8.63586C18.0544 8.69328 18.1566 8.68963 18.2554 8.63286C18.0953 8.79983 17.9486 9.00317 17.8292 9.22911C17.6132 9.63767 17.4905 10.1103 17.4952 10.5196C17.4999 10.9289 17.6359 11.2686 17.8658 11.438C18.0957 11.6075 18.4107 11.5998 18.7241 11.4249C18.92 11.3156 19.1127 11.1428 19.2824 10.9289L18.8882 11.7633L15.9468 11.9508L17.693 7.61999C18.379 7.25689 19.0183 7.08031 19.6366 7.08561L19.6365 7.08556ZM5.66413 8.87361L6.41478 9.19011L7.80847 15.7318C7.66658 15.6882 7.519 15.6659 7.37057 15.6657C7.24288 15.6657 7.11744 15.6828 6.99613 15.7143L5.66413 8.87361ZM7.41505 9.6118L8.21272 9.94808L9.29085 15.5182C9.16188 15.4825 9.02871 15.4643 8.89489 15.464C8.81788 15.464 8.7418 15.4706 8.66685 15.4823L7.4151 9.6117L7.41505 9.6118ZM8.89485 16.3578C9.07592 16.3578 9.28194 16.4505 9.4326 16.6284C9.5833 16.8063 9.68727 17.092 9.68685 17.3688C9.68685 17.3692 9.68685 17.3696 9.68685 17.37C9.68731 17.6468 9.58325 17.9325 9.43264 18.1104C9.36508 18.1904 9.28245 18.2564 9.18946 18.3045L8.9015 18.3603C9.00022 18.1131 9.05075 17.8446 9.05047 17.5715V17.5704C9.05072 17.3949 9.0296 17.2201 8.98757 17.0497C8.98875 17.0144 8.98571 16.979 8.97852 16.9444L8.85402 16.3604C8.86761 16.3594 8.88139 16.3578 8.89485 16.3578ZM7.37057 16.5594C7.55169 16.5594 7.75775 16.6521 7.90846 16.83C8.05911 17.0079 8.16299 17.2936 8.16261 17.5704C8.16261 17.5708 8.16261 17.5712 8.16261 17.5715C8.16299 17.8483 8.05902 18.134 7.90841 18.3119C7.75771 18.4898 7.55169 18.5826 7.37052 18.5826C7.18944 18.5826 6.9846 18.4898 6.83394 18.3119C6.68328 18.1341 6.5781 17.8483 6.57847 17.5715C6.57847 17.5712 6.57847 17.5708 6.57847 17.5704C6.5781 17.2936 6.68328 17.0079 6.83394 16.83C6.9846 16.6521 7.18944 16.5594 7.37052 16.5594H7.37057ZM5.75357 17.0558C5.71248 17.2242 5.69183 17.397 5.69207 17.5704V17.5715C5.6916 18.0576 5.85191 18.5295 6.15861 18.8915C6.19789 18.938 6.23938 18.982 6.28274 19.0236L1.19282 20.6504L1.22947 18.0385L5.75357 17.0557V17.0558Z" fill="#0043C4"/>
</svg>
