<svg width="16" height="17" viewBox="0 0 16 17" fill="none" xmlns="http://www.w3.org/2000/svg">
<g clip-path="url(#clip0_1_82)">
<path d="M8 2.89869C6.76232 2.89869 5.57534 3.39035 4.70017 4.26552C3.825 5.14069 3.33333 6.32768 3.33333 7.56535C3.33333 9.47335 4.52133 11.314 5.82533 12.74C6.49245 13.4661 7.21995 14.1343 8 14.7374C8.78003 14.1347 9.50753 13.467 10.1747 12.7414C11.4787 11.314 12.6667 9.47402 12.6667 7.56535C12.6667 6.32768 12.175 5.14069 11.2998 4.26552C10.4247 3.39035 9.23768 2.89869 8 2.89869ZM8 16.3747L7.622 16.1147L7.62 16.1134L7.616 16.11L7.60267 16.1007L7.55267 16.0654C7.27662 15.8647 7.00672 15.6557 6.74333 15.4387C6.06825 14.8841 5.4327 14.2831 4.84133 13.64C3.47867 12.1494 2 9.99002 2 7.56535C2 5.97405 2.63214 4.44793 3.75736 3.32271C4.88258 2.19749 6.4087 1.56535 8 1.56535C9.5913 1.56535 11.1174 2.19749 12.2426 3.32271C13.3679 4.44793 14 5.97405 14 7.56535C14 9.99002 12.5213 12.15 11.1587 13.64C10.3866 14.4798 9.53952 15.2474 8.628 15.9334C8.55205 15.9901 8.47537 16.0459 8.398 16.1007L8.384 16.11L8.38 16.1134L8.37867 16.114L8 16.374V16.3747ZM8 6.23202C7.64638 6.23202 7.30724 6.3725 7.05719 6.62254C6.80714 6.87259 6.66667 7.21173 6.66667 7.56535C6.66667 7.91898 6.80714 8.25811 7.05719 8.50816C7.30724 8.75821 7.64638 8.89869 8 8.89869C8.35362 8.89869 8.69276 8.75821 8.94281 8.50816C9.19286 8.25811 9.33333 7.91898 9.33333 7.56535C9.33333 7.21173 9.19286 6.87259 8.94281 6.62254C8.69276 6.3725 8.35362 6.23202 8 6.23202ZM5.33333 7.56535C5.33333 6.85811 5.61428 6.17983 6.11438 5.67974C6.61448 5.17964 7.29276 4.89869 8 4.89869C8.70724 4.89869 9.38552 5.17964 9.88562 5.67974C10.3857 6.17983 10.6667 6.85811 10.6667 7.56535C10.6667 8.2726 10.3857 8.95087 9.88562 9.45097C9.38552 9.95107 8.70724 10.232 8 10.232C7.29276 10.232 6.61448 9.95107 6.11438 9.45097C5.61428 8.95087 5.33333 8.2726 5.33333 7.56535Z" fill="black"/>
</g>
<defs>
<clipPath id="clip0_1_82">
<rect width="16" height="16" fill="white" transform="translate(0 0.56543)"/>
</clipPath>
</defs>
</svg>
