<svg width="16" height="17" viewBox="0 0 16 17" fill="none" xmlns="http://www.w3.org/2000/svg">
<path d="M5.085 2.56543C5.18844 2.27285 5.38008 2.01956 5.63351 1.84046C5.88694 1.66136 6.18967 1.56527 6.5 1.56543H9.5C9.81033 1.56527 10.1131 1.66136 10.3665 1.84046C10.6199 2.01956 10.8116 2.27285 10.915 2.56543H11.5C11.8978 2.56543 12.2794 2.72347 12.5607 3.00477C12.842 3.28607 13 3.66761 13 4.06543V6.16543C12.6804 6.0019 12.3454 5.87026 12 5.77243V4.06543C12 3.93282 11.9473 3.80564 11.8536 3.71188C11.7598 3.61811 11.6326 3.56543 11.5 3.56543H10.915C10.8116 3.85801 10.6199 4.1113 10.3665 4.2904C10.1131 4.4695 9.81033 4.56559 9.5 4.56543H6.5C6.18967 4.56559 5.88694 4.4695 5.63351 4.2904C5.38008 4.1113 5.18844 3.85801 5.085 3.56543H4.5C4.36739 3.56543 4.24021 3.61811 4.14645 3.71188C4.05268 3.80564 4 3.93282 4 4.06543V14.0654C4 14.198 4.05268 14.3252 4.14645 14.419C4.24021 14.5128 4.36739 14.5654 4.5 14.5654H6.257C6.571 14.9454 6.934 15.2814 7.337 15.5654H4.5C4.10218 15.5654 3.72064 15.4074 3.43934 15.1261C3.15804 14.8448 3 14.4633 3 14.0654V4.06543C3 3.66761 3.15804 3.28607 3.43934 3.00477C3.72064 2.72347 4.10218 2.56543 4.5 2.56543H5.085ZM6.5 2.56543C6.36739 2.56543 6.24021 2.61811 6.14645 2.71188C6.05268 2.80564 6 2.93282 6 3.06543C6 3.19804 6.05268 3.32521 6.14645 3.41898C6.24021 3.51275 6.36739 3.56543 6.5 3.56543H9.5C9.63261 3.56543 9.75979 3.51275 9.85355 3.41898C9.94732 3.32521 10 3.19804 10 3.06543C10 2.93282 9.94732 2.80564 9.85355 2.71188C9.75979 2.61811 9.63261 2.56543 9.5 2.56543H6.5ZM15 11.0654C15 11.6564 14.8836 12.2415 14.6575 12.7875C14.4313 13.3335 14.0998 13.8295 13.682 14.2474C13.2641 14.6653 12.768 14.9967 12.2221 15.2229C11.6761 15.449 11.0909 15.5654 10.5 15.5654C9.90905 15.5654 9.32389 15.449 8.77792 15.2229C8.23196 14.9967 7.73588 14.6653 7.31802 14.2474C6.90016 13.8295 6.56869 13.3335 6.34254 12.7875C6.1164 12.2415 6 11.6564 6 11.0654C6 9.87196 6.47411 8.72736 7.31802 7.88345C8.16193 7.03954 9.30653 6.56543 10.5 6.56543C11.6935 6.56543 12.8381 7.03954 13.682 7.88345C14.5259 8.72736 15 9.87196 15 11.0654ZM10.5 8.56543C10.3674 8.56543 10.2402 8.61811 10.1464 8.71188C10.0527 8.80564 10 8.93282 10 9.06543V11.0654C10 11.198 10.0527 11.3252 10.1464 11.419C10.2402 11.5128 10.3674 11.5654 10.5 11.5654C10.6326 11.5654 10.7598 11.5128 10.8536 11.419C10.9473 11.3252 11 11.198 11 11.0654V9.06543C11 8.93282 10.9473 8.80564 10.8536 8.71188C10.7598 8.61811 10.6326 8.56543 10.5 8.56543ZM10.5 13.6904C10.6658 13.6904 10.8247 13.6246 10.9419 13.5074C11.0592 13.3902 11.125 13.2312 11.125 13.0654C11.125 12.8997 11.0592 12.7407 10.9419 12.6235C10.8247 12.5063 10.6658 12.4404 10.5 12.4404C10.3342 12.4404 10.1753 12.5063 10.0581 12.6235C9.94085 12.7407 9.875 12.8997 9.875 13.0654C9.875 13.2312 9.94085 13.3902 10.0581 13.5074C10.1753 13.6246 10.3342 13.6904 10.5 13.6904Z" fill="black"/>
</svg>
