<svg width="16" height="17" viewBox="0 0 16 17" fill="none" xmlns="http://www.w3.org/2000/svg">
<g clip-path="url(#clip0_1_73)">
<path d="M14.2501 16.5654C14.0201 16.5661 13.7924 16.5211 13.58 16.4332C13.3675 16.3452 13.1747 16.216 13.0126 16.0529L10.9486 13.9889C10.3628 14.1183 9.75277 14.0829 9.18595 13.8867C8.61912 13.6905 8.11769 13.3412 7.73723 12.8775C7.35678 12.4138 7.11216 11.8538 7.03049 11.2595C6.94883 10.6653 7.0333 10.0601 7.27456 9.51093L7.56856 8.84093L9.64656 10.9189C9.74171 11.0098 9.86823 11.0605 9.99981 11.0605C10.1314 11.0605 10.2579 11.0098 10.3531 10.9189C10.3996 10.8726 10.4365 10.8175 10.4617 10.7568C10.4869 10.6962 10.4999 10.6312 10.4999 10.5655C10.5 10.4999 10.4871 10.4348 10.4619 10.3742C10.4368 10.3135 10.4 10.2584 10.3536 10.2119L8.27556 8.13343L8.94556 7.83943C9.49476 7.59832 10.1 7.51398 10.6942 7.59574C11.2884 7.6775 11.8484 7.92218 12.312 8.30265C12.7757 8.68313 13.125 9.18455 13.3212 9.75136C13.5174 10.3182 13.5528 10.9282 13.4236 11.5139L15.4876 13.5779C15.7323 13.8227 15.899 14.1345 15.9665 14.474C16.0341 14.8135 15.9994 15.1654 15.867 15.4851C15.7345 15.8049 15.5102 16.0782 15.2224 16.2705C14.9346 16.4628 14.5962 16.5655 14.2501 16.5654ZM11.2351 12.8609L13.7201 15.3459C13.8628 15.4822 14.0527 15.5583 14.2501 15.5583C14.4475 15.5583 14.6373 15.4822 14.7801 15.3459C14.8498 15.2764 14.9051 15.1937 14.9429 15.1027C14.9806 15.0117 15.0001 14.9142 15.0001 14.8157C15.0001 14.7172 14.9806 14.6196 14.9429 14.5286C14.9051 14.4376 14.8498 14.355 14.7801 14.2854L12.2956 11.8004L12.3896 11.5089C12.4994 11.1714 12.5277 10.8126 12.4722 10.462C12.4167 10.1113 12.279 9.77886 12.0703 9.49171C11.8615 9.20457 11.5878 8.97093 11.2714 8.80993C10.955 8.64893 10.605 8.56514 10.2501 8.56543C10.2081 8.56543 10.1664 8.56659 10.1251 8.56893L11.0611 9.50493C11.3423 9.78622 11.5002 10.1677 11.5002 10.5654C11.5002 10.9632 11.3423 11.3446 11.0611 11.6259C10.7753 11.8988 10.3954 12.051 10.0003 12.051C9.60521 12.051 9.22531 11.8988 8.93956 11.6259L8.00356 10.6899C8.00122 10.7316 8.00006 10.7734 8.00006 10.8154C7.99978 11.1705 8.08358 11.5205 8.24461 11.837C8.40563 12.1534 8.6393 12.4272 8.92649 12.636C9.21368 12.8447 9.54622 12.9825 9.8969 13.038C10.2476 13.0936 10.6064 13.0652 10.9441 12.9554L11.2351 12.8609Z" fill="black"/>
<path d="M12.5 3.06543H11V2.56543C10.9992 2.30046 10.8936 2.04656 10.7062 1.8592C10.5189 1.67183 10.265 1.56622 10 1.56543H6C5.73503 1.56622 5.48113 1.67183 5.29377 1.8592C5.1064 2.04656 5.00079 2.30046 5 2.56543V3.06543H3.5C3.23503 3.06622 2.98113 3.17183 2.79377 3.3592C2.6064 3.54656 2.50079 3.80046 2.5 4.06543V14.5654C2.50079 14.8304 2.6064 15.0843 2.79377 15.2717C2.98113 15.459 3.23503 15.5646 3.5 15.5654H7V14.5654H3.5V4.06543H5V5.56543H11V4.06543H12.5V6.56543H13.5V4.06543C13.4992 3.80046 13.3936 3.54656 13.2062 3.3592C13.0189 3.17183 12.765 3.06622 12.5 3.06543ZM10 4.56543H6V2.56543H10V4.56543Z" fill="black"/>
</g>
<defs>
<clipPath id="clip0_1_73">
<rect width="16" height="16" fill="white" transform="translate(0 0.56543)"/>
</clipPath>
</defs>
</svg>
