<svg width="24" height="24" viewBox="0 0 24 24" fill="none" xmlns="http://www.w3.org/2000/svg">
<path d="M21.17 15.4L15.26 5.55C14.48 4.25 13.3 3.51 12 3.51C10.7 3.51 9.52001 4.25 8.74001 5.54L2.83001 15.4C2.39001 16.13 2.17001 16.89 2.17001 17.61C2.17001 18.18 2.31001 18.74 2.59001 19.23C3.23001 20.35 4.47001 21 6.00001 21H18C19.53 21 20.77 20.35 21.41 19.23C21.69 18.74 21.83 18.21 21.83 17.65C21.84 16.91 21.62 16.14 21.17 15.4ZM12 8.45C12.85 8.45 13.55 9.15 13.55 10C13.55 10.85 12.86 11.55 12 11.55C11.15 11.55 10.45 10.85 10.45 10C10.45 9.14 11.14 8.45 12 8.45ZM13.69 16.91C13.66 16.95 12.89 17.83 11.62 17.83H11.47C10.96 17.8 10.54 17.58 10.29 17.2C9.98001 16.73 9.93001 16.09 10.17 15.38L10.58 14.16C10.81 13.48 10.59 13.37 10.47 13.31L10.33 13.29C10.08 13.29 9.73001 13.44 9.62001 13.5C9.52001 13.55 9.39001 13.53 9.31001 13.43C9.24001 13.33 9.24001 13.2 9.32001 13.11C9.35001 13.07 10.19 12.12 11.54 12.2C12.05 12.23 12.47 12.45 12.72 12.83C13.04 13.3 13.08 13.94 12.84 14.66L12.43 15.88C12.2 16.56 12.42 16.67 12.54 16.73L12.68 16.75C12.93 16.75 13.28 16.6 13.39 16.55C13.5 16.49 13.62 16.52 13.7 16.62C13.77 16.69 13.77 16.82 13.69 16.91Z" fill="#ED1C46"/>
</svg>
