<svg width="24" height="25" viewBox="0 0 24 25" fill="none" xmlns="http://www.w3.org/2000/svg">
<path d="M18 9.56543C18 8.46243 17.103 7.56543 16 7.56543H14.566L12.148 3.53643C11.9698 3.24095 11.7185 2.99638 11.4183 2.8263C11.118 2.65622 10.779 2.56638 10.434 2.56543H5V4.56543H10.434L12.234 7.56543H4C2.897 7.56543 2 8.46243 2 9.56543V18.5654C2 19.6684 2.897 20.5654 4 20.5654H16C17.103 20.5654 18 19.6684 18 18.5654V15.5654L22 17.5654V10.5654L18 12.5654V9.56543ZM16.002 18.5654H4V9.56543H16L16.001 13.5654L16 14.5654L16.001 14.5664L16.002 18.5654Z" fill="#2F2F2F"/>
<path d="M6 14.5654H12V16.5654H6V14.5654Z" fill="#2F2F2F"/>
</svg>
