<svg width="24" height="24" viewBox="0 0 24 24" fill="none" xmlns="http://www.w3.org/2000/svg">
<path d="M12 15C13.6569 15 15 13.6569 15 12C15 10.3431 13.6569 9 12 9C10.3431 9 9 10.3431 9 12C9 13.6569 10.3431 15 12 15Z" fill="#222222"/>
<path d="M12 2C9.38021 2.00663 6.86729 3.03944 5.00001 4.877V3C5.00001 2.73478 4.89465 2.48043 4.70712 2.29289C4.51958 2.10536 4.26523 2 4.00001 2C3.73479 2 3.48044 2.10536 3.2929 2.29289C3.10537 2.48043 3.00001 2.73478 3.00001 3V7.5C3.00001 7.76522 3.10537 8.01957 3.2929 8.20711C3.48044 8.39464 3.73479 8.5 4.00001 8.5H8.50001C8.76523 8.5 9.01958 8.39464 9.20712 8.20711C9.39465 8.01957 9.50001 7.76522 9.50001 7.5C9.50001 7.23478 9.39465 6.98043 9.20712 6.79289C9.01958 6.60536 8.76523 6.5 8.50001 6.5H6.21801C7.31622 5.33699 8.7386 4.53086 10.3006 4.18621C11.8626 3.84155 13.4922 3.97427 14.9778 4.56715C16.4634 5.16003 17.7366 6.1857 18.6322 7.5111C19.5277 8.83649 20.0043 10.4004 20 12C20 12.2652 20.1054 12.5196 20.2929 12.7071C20.4804 12.8946 20.7348 13 21 13C21.2652 13 21.5196 12.8946 21.7071 12.7071C21.8947 12.5196 22 12.2652 22 12C21.9968 9.34881 20.9422 6.80712 19.0676 4.93244C17.1929 3.05776 14.6512 2.00318 12 2ZM19.989 15.5H15.489C15.2238 15.5 14.9694 15.6054 14.7819 15.7929C14.5944 15.9804 14.489 16.2348 14.489 16.5C14.489 16.7652 14.5944 17.0196 14.7819 17.2071C14.9694 17.3946 15.2238 17.5 15.489 17.5H17.782C16.6838 18.663 15.2614 19.4691 13.6994 19.8138C12.1374 20.1585 10.5079 20.0257 9.02222 19.4328C7.53657 18.84 6.26339 17.8143 5.36785 16.4889C4.47231 15.1635 3.99575 13.5996 4.00001 12C4.00001 11.7348 3.89465 11.4804 3.70712 11.2929C3.51958 11.1054 3.26523 11 3.00001 11C2.73479 11 2.48044 11.1054 2.2929 11.2929C2.10537 11.4804 2.00001 11.7348 2.00001 12C1.99722 13.9693 2.57675 15.8954 3.66571 17.5362C4.75468 19.177 6.30447 20.4592 8.12019 21.2215C9.93592 21.9839 11.9365 22.1923 13.8704 21.8207C15.8043 21.4491 17.5851 20.514 18.989 19.133V21C18.989 21.2652 19.0944 21.5196 19.2819 21.7071C19.4694 21.8946 19.7238 22 19.989 22C20.2542 22 20.5086 21.8946 20.6961 21.7071C20.8837 21.5196 20.989 21.2652 20.989 21V16.5C20.989 16.2348 20.8837 15.9804 20.6961 15.7929C20.5086 15.6054 20.2542 15.5 19.989 15.5Z" fill="#222222"/>
</svg>
